<svg version="1.1" id="Layer_1" xmlns="http://www.w3.org/2000/svg" xmlns:xlink="http://www.w3.org/1999/xlink" x="0px" y="0px"
	 width="100%" viewBox="0 0 225 225" enable-background="new 0 0 225 225" xml:space="preserve">
<path fill="#FFFEFE" opacity="1.000000" stroke="none" 
	d="
M226.000000,83.000000 
	C226.000000,131.000000 226.000000,178.500000 226.000000,226.000000 
	C151.000000,226.000000 76.000000,226.000000 1.000000,226.000000 
	C1.000000,151.000000 1.000000,76.000000 1.000000,1.000000 
	C76.000000,1.000000 151.000000,1.000000 226.000000,1.000000 
	C226.000000,28.166666 226.000000,55.333332 226.000000,83.000000 
M58.840572,187.777893 
	C59.145569,187.962051 59.450565,188.146210 59.730247,188.380508 
	C59.730247,188.380508 59.708076,188.432098 60.021133,189.002304 
	C74.642052,203.265106 90.881180,215.140564 109.939705,222.863297 
	C114.828339,224.844208 115.470062,224.401001 115.112816,219.356384 
	C114.655991,212.905914 114.254700,206.451508 113.967583,199.094391 
	C114.256538,194.731339 114.545486,190.368286 115.011002,185.205093 
	C116.828560,178.848373 118.646126,172.491653 120.905998,165.650177 
	C126.316017,158.436157 131.726044,151.222153 137.761032,143.747375 
	C139.900146,142.250900 142.039246,140.754425 144.820389,138.808792 
	C146.513657,142.607544 147.966675,145.867340 149.622345,149.934128 
	C150.733902,156.129608 152.141754,162.291168 152.856354,168.532089 
	C153.360992,172.939346 155.631912,173.346664 158.507446,171.500641 
	C165.164276,167.227081 171.554581,162.538361 178.661118,157.752457 
	C182.091797,153.835693 185.522476,149.918930 189.473526,145.571274 
	C192.433792,140.760925 195.394058,135.950592 198.850418,130.674927 
	C200.584702,126.123230 202.318970,121.571541 204.494675,116.420135 
	C205.380295,110.926781 206.265915,105.433434 207.304764,99.024223 
	C206.892059,93.687805 206.479355,88.351387 206.134842,82.158699 
	C204.575333,70.233681 200.889832,59.059883 194.151871,48.212387 
	C181.124710,26.832094 161.969620,13.878021 137.709915,9.164414 
	C127.968391,7.271658 117.651611,8.548402 107.659500,7.668766 
	C100.041000,6.998086 92.919708,8.204517 85.096153,10.804844 
	C81.686722,12.103088 78.277298,13.401334 74.145493,14.852893 
	C67.718575,18.806807 61.291653,22.760721 54.228134,26.964006 
	C50.487797,30.650671 46.747459,34.337337 42.424248,38.360241 
	C42.142136,38.961796 41.860023,39.563354 41.166298,40.188828 
	C41.166298,40.188828 40.961777,40.546833 40.446323,40.825394 
	C37.182220,46.073997 33.918114,51.322598 30.665510,56.640347 
	C30.665510,56.640347 30.686893,56.706669 30.175301,56.912647 
	C30.059504,57.258350 29.943707,57.604057 29.294008,58.388618 
	C27.925406,61.941776 26.556803,65.494934 24.892624,69.756226 
	C23.649752,75.839302 22.406879,81.922379 21.003183,88.925858 
	C20.981302,93.617241 20.959423,98.308624 20.790119,103.903214 
	C22.685625,114.319923 24.581131,124.736626 26.672033,135.911407 
	C30.756451,144.646698 34.840866,153.382004 39.059853,162.791870 
	C44.584427,169.898895 50.109005,177.005905 55.894291,184.640793 
	C56.210472,184.851303 56.526653,185.061813 56.836159,185.130264 
	C56.836159,185.130264 56.709930,185.195770 56.887016,185.724152 
	C57.195549,185.912567 57.504086,186.100967 57.837914,186.152191 
	C57.837914,186.152191 57.705460,186.195984 57.867386,186.725784 
	C58.163521,186.925125 58.459660,187.124451 58.785652,187.196320 
	C58.785652,187.196320 58.668880,187.255539 58.840572,187.777893 
z"/>
<path fill="#FE7657" opacity="1.000000" stroke="none" 
	d="
M85.856552,10.682438 
	C92.919708,8.204517 100.041000,6.998086 107.659500,7.668766 
	C117.651611,8.548402 127.968391,7.271658 137.709915,9.164414 
	C161.969620,13.878021 181.124710,26.832094 193.808746,48.580833 
	C189.854004,48.675941 186.242386,48.402603 182.372437,47.941853 
	C165.179871,26.496401 142.701614,17.127861 115.678230,16.635214 
	C112.607689,16.555338 109.817108,16.746487 106.592903,16.942043 
	C102.457832,17.376322 98.756386,17.806192 95.011795,17.863176 
	C93.470444,16.227200 92.024384,14.894540 90.458908,13.721231 
	C88.990471,12.620660 87.395721,11.688632 85.856552,10.682438 
z"/>
<path fill="#FB2B7B" opacity="1.000000" stroke="none" 
	d="
M113.829475,199.998795 
	C114.254700,206.451508 114.655991,212.905914 115.112816,219.356384 
	C115.470062,224.401001 114.828339,224.844208 109.939705,222.863297 
	C90.881180,215.140564 74.642052,203.265106 60.263191,188.597778 
	C63.141075,188.880127 65.746445,189.765808 68.424652,190.176025 
	C69.926613,190.406067 71.549088,189.849228 73.433380,189.792740 
	C84.271828,198.216446 95.071045,206.024521 108.610901,211.375916 
	C108.153793,206.083328 107.805038,202.045303 107.801544,198.021820 
	C110.041023,198.690491 111.935249,199.344650 113.829475,199.998795 
z"/>
<path fill="#FD705A" opacity="1.000000" stroke="none" 
	d="
M182.630753,48.129265 
	C186.242386,48.402603 189.854004,48.675941 193.921555,48.917122 
	C200.889832,59.059883 204.575333,70.233681 205.803741,82.386902 
	C202.482132,81.453606 199.491653,80.292114 196.344177,78.812592 
	C193.775101,67.432266 188.891663,57.473278 182.630753,48.129265 
z"/>
<path fill="#FA3078" opacity="1.000000" stroke="none" 
	d="
M73.117264,189.646927 
	C71.549088,189.849228 69.926613,190.406067 68.424652,190.176025 
	C65.746445,189.765808 63.141075,188.880127 60.106663,188.312683 
	C59.708076,188.432098 59.730247,188.380508 59.705521,188.059067 
	C59.343487,187.576935 59.006184,187.416245 58.668877,187.255539 
	C58.668880,187.255539 58.785652,187.196320 58.736202,186.965836 
	C58.359657,186.555557 58.032558,186.375778 57.705460,186.195984 
	C57.705460,186.195984 57.837914,186.152191 57.768349,185.932739 
	C57.369167,185.540802 57.039547,185.368286 56.709930,185.195770 
	C56.709930,185.195770 56.836159,185.130264 56.754028,184.906113 
	C56.325790,184.492294 55.979683,184.302612 55.633579,184.112930 
	C50.109005,177.005905 44.584427,169.898895 39.234314,162.160080 
	C42.359901,161.656723 45.311020,161.785156 48.525837,162.103409 
	C56.898777,171.411118 65.008018,180.529022 73.117264,189.646927 
z"/>
<path fill="#FD4271" opacity="1.000000" stroke="none" 
	d="
M26.476637,135.153336 
	C24.581131,124.736626 22.685625,114.319923 21.255285,103.456955 
	C24.215185,103.670937 26.709921,104.331169 29.274473,105.298889 
	C29.284019,106.229233 29.223749,106.852081 29.158007,107.749588 
	C29.330593,108.331772 29.508654,108.639290 29.767826,109.376648 
	C31.631510,118.519768 33.414078,127.233047 34.767120,135.954361 
	C31.717272,135.692719 29.096954,135.423035 26.476637,135.153336 
z"/>
<path fill="#FB4470" opacity="1.000000" stroke="none" 
	d="
M178.052963,158.017990 
	C171.554581,162.538361 165.164276,167.227081 158.507446,171.500641 
	C155.631912,173.346664 153.360992,172.939346 152.856354,168.532089 
	C152.141754,162.291168 150.733902,156.129608 149.959381,149.500366 
	C151.735748,149.045654 153.175095,149.024689 154.752747,149.401764 
	C155.349380,152.903183 155.836914,156.002594 156.259216,159.110855 
	C156.889038,163.746567 157.925064,164.301620 161.925766,161.687820 
	C165.101242,159.613159 168.097702,157.264557 171.474716,155.188843 
	C173.868164,156.232742 175.960571,157.125366 178.052963,158.017990 
z"/>
<path fill="#FA3975" opacity="1.000000" stroke="none" 
	d="
M26.574335,135.532379 
	C29.096954,135.423035 31.717272,135.692719 35.000717,136.206635 
	C39.863281,144.938446 44.062710,153.426025 48.262138,161.913589 
	C45.311020,161.785156 42.359901,161.656723 39.167030,161.822784 
	C34.840866,153.382004 30.756451,144.646698 26.574335,135.532379 
z"/>
<path fill="#FC6D5B" opacity="1.000000" stroke="none" 
	d="
M54.864735,26.714634 
	C61.291653,22.760721 67.718575,18.806807 74.663589,15.116190 
	C76.723480,16.278191 78.399010,17.012268 79.767624,18.124142 
	C81.015854,19.138212 81.931358,20.561832 82.679581,21.989937 
	C76.244415,25.450407 70.123177,28.725887 63.680000,31.859541 
	C60.526951,30.050022 57.695843,28.382328 54.864735,26.714634 
z"/>
<path fill="#FB4270" opacity="1.000000" stroke="none" 
	d="
M137.136063,144.008148 
	C131.726044,151.222153 126.316017,158.436157 120.244209,165.855927 
	C117.562576,164.771561 115.542732,163.481445 113.626541,161.890350 
	C117.747757,152.843002 123.625603,145.707993 132.022522,140.979553 
	C133.820526,142.219757 135.478287,143.113953 137.136063,144.008148 
z"/>
<path fill="#FD665E" opacity="1.000000" stroke="none" 
	d="
M54.546432,26.839321 
	C57.695843,28.382328 60.526951,30.050022 63.551430,32.170792 
	C61.498302,34.368614 59.251801,36.113358 56.691544,37.987621 
	C54.259979,40.081039 52.142166,42.044933 49.638458,44.000698 
	C46.488964,42.843990 43.725372,41.695412 40.961777,40.546833 
	C40.961777,40.546833 41.166298,40.188828 41.682625,40.015133 
	C42.468346,39.235626 42.737736,38.629814 43.007126,38.024002 
	C46.747459,34.337337 50.487797,30.650671 54.546432,26.839321 
z"/>
<path fill="#FC6061" opacity="1.000000" stroke="none" 
	d="
M40.704048,40.686111 
	C43.725372,41.695412 46.488964,42.843990 49.512188,44.313187 
	C46.312641,49.466557 42.853466,54.299313 38.979065,59.092628 
	C35.927223,58.225861 33.290615,57.398529 30.654009,56.571201 
	C33.918114,51.322598 37.182220,46.073997 40.704048,40.686111 
z"/>
<path fill="#FD655E" opacity="1.000000" stroke="none" 
	d="
M196.501160,79.130615 
	C199.491653,80.292114 202.482132,81.453606 205.769638,82.815033 
	C206.479355,88.351387 206.892059,93.687805 206.890472,99.619736 
	C203.816452,100.141533 201.156738,100.067825 198.402664,99.559158 
	C198.360321,97.054657 198.412338,94.985130 198.554565,92.813614 
	C198.733658,92.420296 198.635895,92.199356 198.255661,91.621399 
	C197.606964,87.172867 197.054062,83.151741 196.501160,79.130615 
z"/>
<path fill="#FC5268" opacity="1.000000" stroke="none" 
	d="
M21.164009,88.005455 
	C22.406879,81.922379 23.649752,75.839302 25.350910,69.553047 
	C28.452682,70.232132 31.096169,71.114403 33.697327,72.365448 
	C32.360165,78.154419 31.065325,83.574608 29.370296,88.996109 
	C26.368074,88.666771 23.766041,88.336113 21.164009,88.005455 
z"/>
<path fill="#FA486B" opacity="1.000000" stroke="none" 
	d="
M137.448547,143.877762 
	C135.478287,143.113953 133.820526,142.219757 132.231903,140.731934 
	C136.576782,137.936234 140.768158,135.533524 145.188431,133.675308 
	C146.272552,133.219559 149.000061,134.140411 149.439590,135.117630 
	C151.461411,139.612808 152.940598,144.352036 154.614441,149.003723 
	C153.175095,149.024689 151.735748,149.045654 149.858032,149.096863 
	C147.966675,145.867340 146.513657,142.607544 144.820389,138.808792 
	C142.039246,140.754425 139.900146,142.250900 137.448547,143.877762 
z"/>
<path fill="#FA3874" opacity="1.000000" stroke="none" 
	d="
M113.522888,162.191330 
	C115.542732,163.481445 117.562576,164.771561 120.023056,166.098297 
	C118.646126,172.491653 116.828560,178.848373 114.543541,185.603790 
	C112.052132,185.334412 110.028175,184.666336 107.974319,183.563171 
	C109.803902,176.149170 111.663391,169.170258 113.522888,162.191330 
z"/>
<path fill="#F75E60" opacity="1.000000" stroke="none" 
	d="
M198.497025,99.994125 
	C201.156738,100.067825 203.816452,100.141533 206.813843,100.077660 
	C206.265915,105.433434 205.380295,110.926781 203.868347,116.712959 
	C200.881607,116.671707 198.521210,116.337639 196.144470,115.603821 
	C196.917755,110.134087 197.707382,105.064102 198.497025,99.994125 
z"/>
<path fill="#FC5268" opacity="1.000000" stroke="none" 
	d="
M198.354309,131.140259 
	C195.394058,135.950592 192.433792,140.760925 188.829315,145.779449 
	C186.005051,145.283463 183.824966,144.579300 181.772415,143.573761 
	C182.837891,141.849960 183.775864,140.427521 184.931778,138.725800 
	C187.287918,134.915512 189.426102,131.384537 191.916321,127.984253 
	C194.296982,129.123383 196.325653,130.131821 198.354309,131.140259 
z"/>
<path fill="#FC5965" opacity="1.000000" stroke="none" 
	d="
M33.739655,71.996666 
	C31.096169,71.114403 28.452682,70.232132 25.498699,69.198982 
	C26.556803,65.494934 27.925406,61.941776 29.819332,58.056572 
	C30.458736,57.385239 30.572815,57.045952 30.686893,56.706669 
	C30.686893,56.706669 30.665510,56.640347 30.659760,56.605774 
	C33.290615,57.398529 35.927223,58.225861 38.848816,59.438030 
	C37.335751,63.880802 35.537701,67.938736 33.739655,71.996666 
z"/>
<path fill="#F8496A" opacity="1.000000" stroke="none" 
	d="
M21.083595,88.465652 
	C23.766041,88.336113 26.368074,88.666771 29.413857,89.367332 
	C29.883921,90.483902 29.910234,91.230576 29.743132,92.332352 
	C29.434694,96.788773 29.319674,100.890091 29.204655,104.991409 
	C26.709921,104.331169 24.215185,103.670937 21.328999,103.005356 
	C20.959423,98.308624 20.981302,93.617241 21.083595,88.465652 
z"/>
<path fill="#FA7158" opacity="1.000000" stroke="none" 
	d="
M82.993507,21.804947 
	C81.931358,20.561832 81.015854,19.138212 79.767624,18.124142 
	C78.399010,17.012268 76.723480,16.278191 75.024780,15.039533 
	C78.277298,13.401334 81.686722,12.103088 85.476349,10.743641 
	C87.395721,11.688632 88.990471,12.620660 90.458908,13.721231 
	C92.024384,14.894540 93.470444,16.227200 94.730354,18.090010 
	C90.659218,19.728136 86.826363,20.766541 82.993507,21.804947 
z"/>
<path fill="#FA4A6B" opacity="1.000000" stroke="none" 
	d="
M181.644897,143.875137 
	C183.824966,144.579300 186.005051,145.283463 188.569138,145.994873 
	C185.522476,149.918930 182.091797,153.835693 178.357040,157.885223 
	C175.960571,157.125366 173.868164,156.232742 171.610260,154.894257 
	C174.844803,150.923996 178.244858,147.399567 181.644897,143.875137 
z"/>
<path fill="#FB5864" opacity="1.000000" stroke="none" 
	d="
M198.602356,130.907593 
	C196.325653,130.131821 194.296982,129.123383 192.039719,127.627350 
	C193.261017,123.427689 194.710907,119.715630 196.160797,116.003571 
	C198.521210,116.337639 200.881607,116.671707 203.647614,117.012817 
	C202.318970,121.571541 200.584702,126.123230 198.602356,130.907593 
z"/>
<path fill="#F43176" opacity="1.000000" stroke="none" 
	d="
M108.004219,183.998260 
	C110.028175,184.666336 112.052132,185.334412 114.455261,186.003860 
	C114.545486,190.368286 114.256538,194.731339 113.898529,199.546600 
	C111.935249,199.344650 110.041023,198.690491 107.680847,197.572403 
	C107.478012,192.738403 107.741119,188.368332 108.004219,183.998260 
z"/>
<path fill="#FC6061" opacity="1.000000" stroke="none" 
	d="
M42.715687,38.192123 
	C42.737736,38.629814 42.468346,39.235626 41.888435,40.003174 
	C41.860023,39.563354 42.142136,38.961796 42.715687,38.192123 
z"/>
<path fill="#FC6061" opacity="1.000000" stroke="none" 
	d="
M30.431097,56.809658 
	C30.572815,57.045952 30.458736,57.385239 30.086285,57.837143 
	C29.943707,57.604057 30.059504,57.258350 30.431097,56.809658 
z"/>
<path fill="#FB2B7B" opacity="1.000000" stroke="none" 
	d="
M55.763931,184.376862 
	C55.979683,184.302612 56.325790,184.492294 56.757366,184.977142 
	C56.526653,185.061813 56.210472,184.851303 55.763931,184.376862 
z"/>
<path fill="#FB2B7B" opacity="1.000000" stroke="none" 
	d="
M56.798470,185.459961 
	C57.039547,185.368286 57.369167,185.540802 57.755703,186.001343 
	C57.504086,186.100967 57.195549,185.912567 56.798470,185.459961 
z"/>
<path fill="#FB2B7B" opacity="1.000000" stroke="none" 
	d="
M57.786423,186.460876 
	C58.032558,186.375778 58.359657,186.555557 58.721275,187.029572 
	C58.459660,187.124451 58.163521,186.925125 57.786423,186.460876 
z"/>
<path fill="#FB2B7B" opacity="1.000000" stroke="none" 
	d="
M58.754723,187.516724 
	C59.006184,187.416245 59.343487,187.576935 59.718178,188.033997 
	C59.450565,188.146210 59.145569,187.962051 58.754723,187.516724 
z"/>
<path fill="#3C3C3C" opacity="1.000000" stroke="none" 
	d="
M196.144470,115.603821 
	C194.710907,119.715630 193.261017,123.427689 191.687714,127.496658 
	C189.426102,131.384537 187.287918,134.915512 184.549591,138.725372 
	C180.688843,140.935455 177.428253,142.866638 173.548447,145.164566 
	C133.467804,113.973503 92.480484,82.076843 51.076977,49.856319 
	C55.373810,46.173176 59.795044,43.537113 57.005302,37.858101 
	C59.251801,36.113358 61.498302,34.368614 63.873375,32.312618 
	C70.123177,28.725887 76.244415,25.450407 82.679581,21.989937 
	C86.826363,20.766541 90.659218,19.728136 94.773514,18.462898 
	C98.756386,17.806192 102.457832,17.376322 106.809822,17.283510 
	C110.292984,17.382460 113.125587,17.144348 115.958199,16.906239 
	C142.701614,17.127861 165.179871,26.496401 182.372437,47.941853 
	C188.891663,57.473278 193.775101,67.432266 196.344177,78.812592 
	C197.054062,83.151741 197.606964,87.172867 198.223450,91.845947 
	C198.287048,92.497902 198.464355,92.915604 198.464355,92.915604 
	C198.412338,94.985130 198.360321,97.054657 198.402664,99.559151 
	C197.707382,105.064102 196.917755,110.134087 196.144470,115.603821 
z"/>
<path fill="#FA7158" opacity="1.000000" stroke="none" 
	d="
M115.678230,16.635212 
	C113.125587,17.144348 110.292984,17.382460 107.243454,17.279102 
	C109.817108,16.746487 112.607689,16.555338 115.678230,16.635212 
z"/>
<path fill="#383838" opacity="1.000000" stroke="none" 
	d="
M56.691544,37.987617 
	C59.795044,43.537113 55.373810,46.173176 51.076977,49.856319 
	C92.480484,82.076843 133.467804,113.973503 173.548447,145.164566 
	C177.428253,142.866638 180.688843,140.935455 184.331635,139.004669 
	C183.775864,140.427521 182.837891,141.849960 181.772415,143.573761 
	C178.244858,147.399567 174.844803,150.923996 171.309204,154.742996 
	C168.097702,157.264557 165.101242,159.613159 161.925766,161.687820 
	C157.925064,164.301620 156.889038,163.746567 156.259216,159.110855 
	C155.836914,156.002594 155.349380,152.903183 154.752747,149.401764 
	C152.940598,144.352036 151.461411,139.612808 149.439590,135.117630 
	C149.000061,134.140411 146.272552,133.219559 145.188431,133.675308 
	C140.768158,135.533524 136.576782,137.936234 132.091675,140.385925 
	C123.625603,145.707993 117.747757,152.843002 113.626541,161.890350 
	C111.663391,169.170258 109.803902,176.149170 107.974319,183.563187 
	C107.741119,188.368332 107.478012,192.738403 107.335602,197.557877 
	C107.805038,202.045303 108.153793,206.083328 108.610901,211.375916 
	C95.071045,206.024521 84.271828,198.216446 73.433380,189.792740 
	C65.008018,180.529022 56.898777,171.411118 48.525833,162.103409 
	C44.062710,153.426025 39.863281,144.938446 35.430248,136.198608 
	C33.414078,127.233047 31.631510,118.519768 29.847549,109.145859 
	C29.846157,108.485214 29.958130,108.009865 30.255720,107.717117 
	C30.347723,102.275330 30.142136,97.126289 29.936550,91.977242 
	C29.910234,91.230576 29.883921,90.483902 29.814045,89.366013 
	C31.065325,83.574608 32.360165,78.154419 33.697327,72.365448 
	C35.537701,67.938736 37.335751,63.880802 39.264046,59.477470 
	C42.853466,54.299313 46.312641,49.466557 49.898087,44.321312 
	C52.142166,42.044933 54.259979,40.081039 56.691544,37.987617 
z"/>
<path fill="#48393C" opacity="1.000000" stroke="none" 
	d="
M29.743132,92.332352 
	C30.142136,97.126289 30.347723,102.275330 30.067177,107.568359 
	C29.581045,107.712349 29.163479,107.474930 29.163479,107.474930 
	C29.223749,106.852081 29.284019,106.229233 29.274471,105.298897 
	C29.319674,100.890091 29.434694,96.788773 29.743132,92.332352 
z"/>
<path fill="#F8496A" opacity="1.000000" stroke="none" 
	d="
M29.158007,107.749588 
	C29.163479,107.474930 29.581045,107.712349 29.769588,107.861107 
	C29.958130,108.009865 29.846157,108.485214 29.766434,108.716011 
	C29.508654,108.639290 29.330593,108.331772 29.158007,107.749588 
z"/>
<path fill="#F75E60" opacity="1.000000" stroke="none" 
	d="
M198.554565,92.813614 
	C198.464355,92.915604 198.287048,92.497902 198.319244,92.273361 
	C198.635895,92.199356 198.733658,92.420296 198.554565,92.813614 
z"/>
</svg>